<svg width="45" height="49" viewBox="0 0 45 49" fill="none" xmlns="http://www.w3.org/2000/svg">
<rect x="0.5" y="7.29297" width="44" height="41.2069" rx="11.5" stroke="black"/>
<line x1="0.882812" y1="14.5688" x2="44.1181" y2="14.5688" stroke="black"/>
<path d="M14.1171 10.9308C13.6759 12.586 10.5877 12.586 10.1465 10.9308M14.1171 2.65495C13.6759 0.999779 10.5877 0.999785 10.1465 2.65496" stroke="black" stroke-linecap="round"/>
<path d="M14.1171 10.9308C13.6759 12.586 10.5877 12.586 10.1465 10.9308M14.1171 2.65495C13.6759 0.999779 10.5877 0.999785 10.1465 2.65496" stroke="black" stroke-linecap="round"/>
<path d="M14.1171 2.65527V10.9311M10.1465 2.65527V10.9311" stroke="black" stroke-linecap="round"/>
<path d="M33.0878 10.5172C32.6466 12.1724 29.5584 12.1724 29.1172 10.5173M33.0878 2.24137C32.6466 0.586205 29.5584 0.586211 29.1172 2.24138" stroke="black" stroke-linecap="round"/>
<path d="M33.0878 10.5172C32.6466 12.1724 29.5584 12.1724 29.1172 10.5173M33.0878 2.24137C32.6466 0.586205 29.5584 0.586211 29.1172 2.24138" stroke="black" stroke-linecap="round"/>
<path d="M33.0878 2.24121V10.5171M29.1172 2.24121V10.5171" stroke="black" stroke-linecap="round"/>
<rect x="15.8828" y="20.0347" width="4.41176" height="1.65517" rx="0.827586" fill="#0A0A0A"/>
<rect x="22.9414" y="20.0347" width="4.41176" height="1.65517" rx="0.827586" fill="#0A0A0A"/>
<rect x="3.5293" y="25.8276" width="4.41176" height="1.65517" rx="0.827586" fill="#0A0A0A"/>
<rect x="10.5879" y="25.8276" width="4.41177" height="1.65517" rx="0.827586" fill="#0A0A0A"/>
<rect x="3.5293" y="25.8276" width="4.41176" height="1.65517" rx="0.827586" fill="#0A0A0A"/>
<rect x="17.6465" y="25.8276" width="4.41176" height="1.65517" rx="0.827586" fill="#0A0A0A"/>
<rect x="24.7051" y="25.8276" width="4.41176" height="1.65517" rx="0.827586" fill="#0A0A0A"/>
<rect x="31.7656" y="25.8276" width="4.41177" height="1.65517" rx="0.827586" fill="#0A0A0A"/>
<rect x="24.7051" y="25.8276" width="4.41176" height="1.65517" rx="0.827586" fill="#0A0A0A"/>
<rect x="3.5293" y="31.6206" width="4.41176" height="1.65517" rx="0.827587" fill="#0A0A0A"/>
<rect x="10.5879" y="31.6206" width="4.41177" height="1.65517" rx="0.827587" fill="#0A0A0A"/>
<rect x="3.5293" y="31.6206" width="4.41176" height="1.65517" rx="0.827587" fill="#0A0A0A"/>
<rect x="17.6465" y="31.6206" width="4.41176" height="1.65517" rx="0.827587" fill="#0A0A0A"/>
<rect x="24.7051" y="31.6206" width="4.41176" height="1.65517" rx="0.827587" fill="#0A0A0A"/>
<rect x="31.7656" y="31.6206" width="4.41177" height="1.65517" rx="0.827587" fill="#0A0A0A"/>
<rect x="24.7051" y="31.6206" width="4.41176" height="1.65517" rx="0.827587" fill="#0A0A0A"/>
<rect x="37.0586" y="20.0347" width="4.41177" height="1.65517" rx="0.827586" fill="#0A0A0A"/>
<rect x="30" y="20.0347" width="4.41177" height="1.65517" rx="0.827586" fill="#0A0A0A"/>
<rect x="15.8828" y="37.4136" width="4.41176" height="1.65517" rx="0.827587" fill="#0A0A0A"/>
<rect x="22.9414" y="37.4136" width="4.41176" height="1.65517" rx="0.827587" fill="#0A0A0A"/>
<rect x="37.0586" y="37.4136" width="4.41177" height="1.65517" rx="0.827587" fill="#0A0A0A"/>
<rect x="30" y="37.4136" width="4.41177" height="1.65517" rx="0.827587" fill="#0A0A0A"/>
</svg>
