<?xml version="1.0" encoding="UTF-8" standalone="no" ?>
<!DOCTYPE svg PUBLIC "-//W3C//DTD SVG 1.1//EN" "http://www.w3.org/Graphics/SVG/1.1/DTD/svg11.dtd">
<svg xmlns="http://www.w3.org/2000/svg" xmlns:xlink="http://www.w3.org/1999/xlink" version="1.1" width="500" height="500" viewBox="0 0 500 500" xml:space="preserve">
<desc>Created with Fabric.js 5.3.0</desc>
<defs>
</defs>
<g transform="matrix(1.9011603807 0.0331848779 -0.0331848779 1.9011603807 248.1147262881 204.5148461751)" id="yMoM5lFk9Bm1karoeeKmk"  >
<path style="stroke: rgb(0,0,0); stroke-width: 1; stroke-dasharray: none; stroke-linecap: butt; stroke-dashoffset: 0; stroke-linejoin: miter; stroke-miterlimit: 4; fill: rgb(255,255,255); fill-opacity: 0; fill-rule: nonzero; opacity: 1;"  transform=" translate(0, 0)" d="M -0.02257 17.09695 L -10.03136 -0.5456600000000016 L -10.03136 -0.5456600000000016 C -12.3392 -4.613720000000002 -11.64701 -9.722010000000001 -8.33981 -13.02921 L -7.32045 -14.048570000000002 L -7.32045 -14.048570000000002 C -3.2800599999999998 -18.08896 3.2621700000000002 -18.11644 7.33637 -14.11015 L 8.14326 -13.31671 L 8.14326 -13.31671 C 11.66743 -9.851280000000001 12.40362 -4.441790000000001 9.93371 -0.16061000000000014 z" stroke-linecap="round" />
</g>
<g transform="matrix(0.619051561 -1.7978562773 1.7978562773 0.619051561 219.3336069471 228.5318695221)" id="FcOIZsdrAfuu00Svtzvl8"  >
<path style="stroke: rgb(0,0,0); stroke-width: 1; stroke-dasharray: none; stroke-linecap: butt; stroke-dashoffset: 0; stroke-linejoin: miter; stroke-miterlimit: 4; fill: rgb(255,255,255); fill-opacity: 0; fill-rule: nonzero; opacity: 1;"  transform=" translate(0, 0)" d="M -0.02257 17.09695 L -10.03136 -0.5456600000000016 L -10.03136 -0.5456600000000016 C -12.3392 -4.613720000000002 -11.64701 -9.722010000000001 -8.33981 -13.02921 L -7.32045 -14.048570000000002 L -7.32045 -14.048570000000002 C -3.2800599999999998 -18.08896 3.2621700000000002 -18.11644 7.33637 -14.11015 L 8.14326 -13.31671 L 8.14326 -13.31671 C 11.66743 -9.851280000000001 12.40362 -4.441790000000001 9.93371 -0.16061000000000014 z" stroke-linecap="round" />
</g>
<g transform="matrix(-1.5185654752 -1.1443211642 1.1443211642 -1.5185654752 230.736591587 262.0624171589)" id="Ld_jblu0lLMDkIUek3lIe"  >
<path style="stroke: rgb(0,0,0); stroke-width: 1; stroke-dasharray: none; stroke-linecap: butt; stroke-dashoffset: 0; stroke-linejoin: miter; stroke-miterlimit: 4; fill: rgb(255,255,255); fill-opacity: 0; fill-rule: nonzero; opacity: 1;"  transform=" translate(0.0000065765, 0.0000037049)" d="M -0.02257 17.09695 L -10.03136 -0.5456600000000016 L -10.03136 -0.5456600000000016 C -12.3392 -4.613720000000002 -11.64701 -9.722010000000001 -8.33981 -13.02921 L -7.32045 -14.048570000000002 L -7.32045 -14.048570000000002 C -3.2800599999999998 -18.08896 3.2621700000000002 -18.11644 7.33637 -14.11015 L 8.14326 -13.31671 L 8.14326 -13.31671 C 11.66743 -9.851280000000001 12.40362 -4.441790000000001 9.93371 -0.16061000000000014 z" stroke-linecap="round" />
</g>
<g transform="matrix(-1.4130527141 1.2723183785 -1.2723183785 -1.4130527141 268.9222726257 261.379478251)" id="gqLDS8-TrSzOip4B7qplo"  >
<path style="stroke: rgb(0,0,0); stroke-width: 1; stroke-dasharray: none; stroke-linecap: butt; stroke-dashoffset: 0; stroke-linejoin: miter; stroke-miterlimit: 4; fill: rgb(255,255,255); fill-opacity: 0; fill-rule: nonzero; opacity: 1;"  transform=" translate(0.0000065765, 0.0000037049)" d="M -0.02257 17.09695 L -10.03136 -0.5456600000000016 L -10.03136 -0.5456600000000016 C -12.3392 -4.613720000000002 -11.64701 -9.722010000000001 -8.33981 -13.02921 L -7.32045 -14.048570000000002 L -7.32045 -14.048570000000002 C -3.2800599999999998 -18.08896 3.2621700000000002 -18.11644 7.33637 -14.11015 L 8.14326 -13.31671 L 8.14326 -13.31671 C 11.66743 -9.851280000000001 12.40362 -4.441790000000001 9.93371 -0.16061000000000014 z" stroke-linecap="round" />
</g>
<g transform="matrix(0.6814187308 1.775156484 -1.775156484 0.6814187308 276.8861816146 227.7041987752)" id="CNLW82C59KY6oybIMnHJc"  >
<path style="stroke: rgb(0,0,0); stroke-width: 1; stroke-dasharray: none; stroke-linecap: butt; stroke-dashoffset: 0; stroke-linejoin: miter; stroke-miterlimit: 4; fill: rgb(255,255,255); fill-opacity: 0; fill-rule: nonzero; opacity: 1;"  transform=" translate(0, 0)" d="M -0.02257 17.09695 L -10.03136 -0.5456600000000016 L -10.03136 -0.5456600000000016 C -12.3392 -4.613720000000002 -11.64701 -9.722010000000001 -8.33981 -13.02921 L -7.32045 -14.048570000000002 L -7.32045 -14.048570000000002 C -3.2800599999999998 -18.08896 3.2621700000000002 -18.11644 7.33637 -14.11015 L 8.14326 -13.31671 L 8.14326 -13.31671 C 11.66743 -9.851280000000001 12.40362 -4.441790000000001 9.93371 -0.16061000000000014 z" stroke-linecap="round" />
</g>
<g transform="matrix(2.1629604714 0 0 2.1629604714 198.2548349535 202.0083836713)" id="R6tAiBIMf3Pb6u7oqmBCl"  >
<path style="stroke: rgb(0,0,0); stroke-width: 1; stroke-dasharray: none; stroke-linecap: butt; stroke-dashoffset: 0; stroke-linejoin: miter; stroke-miterlimit: 4; fill: rgb(255,255,255); fill-opacity: 0; fill-rule: nonzero; opacity: 1;"  transform=" translate(0, 0)" d="M 0 0" stroke-linecap="round" />
</g>
</svg>