<?xml version="1.0" encoding="UTF-8" standalone="no" ?>
<!DOCTYPE svg PUBLIC "-//W3C//DTD SVG 1.1//EN" "http://www.w3.org/Graphics/SVG/1.1/DTD/svg11.dtd">
<svg xmlns="http://www.w3.org/2000/svg" xmlns:xlink="http://www.w3.org/1999/xlink" version="1.1" width="250" height="250" viewBox="0 0 500 500" xml:space="preserve">
<desc>Created with Fabric.js 5.3.0</desc>
<defs>
</defs>
<g transform="matrix(1.9011603807 0.0331848779 -0.0331848779 1.9011603807 248.1147262881 204.5148461751)" id="yMoM5lFk9Bm1karoeeKmk"  >
<path style="stroke: rgb(0,0,0); stroke-width: 1; stroke-dasharray: none; stroke-linecap: butt; stroke-dashoffset: 0; stroke-linejoin: miter; stroke-miterlimit: 4; fill: rgb(255,255,255); fill-opacity: 0; fill-rule: nonzero; opacity: 1;"  transform=" translate(0, 0)" d="M -0.02257 17.09695 L -10.03136 -0.5456600000000016 L -10.03136 -0.5456600000000016 C -12.3392 -4.613720000000002 -11.64701 -9.722010000000001 -8.33981 -13.02921 L -7.32045 -14.048570000000002 L -7.32045 -14.048570000000002 C -3.2800599999999998 -18.08896 3.2621700000000002 -18.11644 7.33637 -14.11015 L 8.14326 -13.31671 L 8.14326 -13.31671 C 11.66743 -9.851280000000001 12.40362 -4.441790000000001 9.93371 -0.16061000000000014 z" stroke-linecap="round" />
</g>
<g transform="matrix(0.619051561 -1.7978562773 1.7978562773 0.619051561 219.3336069471 228.5318695221)" id="FcOIZsdrAfuu00Svtzvl8"  >
<path style="stroke: rgb(0,0,0); stroke-width: 1; stroke-dasharray: none; stroke-linecap: butt; stroke-dashoffset: 0; stroke-linejoin: miter; stroke-miterlimit: 4; fill: rgb(255,255,255); fill-opacity: 0; fill-rule: nonzero; opacity: 1;"  transform=" translate(0, 0)" d="M -0.02257 17.09695 L -10.03136 -0.5456600000000016 L -10.03136 -0.5456600000000016 C -12.3392 -4.613720000000002 -11.64701 -9.722010000000001 -8.33981 -13.02921 L -7.32045 -14.048570000000002 L -7.32045 -14.048570000000002 C -3.2800599999999998 -18.08896 3.2621700000000002 -18.11644 7.33637 -14.11015 L 8.14326 -13.31671 L 8.14326 -13.31671 C 11.66743 -9.851280000000001 12.40362 -4.441790000000001 9.93371 -0.16061000000000014 z" stroke-linecap="round" />
</g>
<g transform="matrix(0.6814187308 1.775156484 -1.775156484 0.6814187308 276.8861816146 227.7041987752)" id="CNLW82C59KY6oybIMnHJc"  >
<path style="stroke: rgb(0,0,0); stroke-width: 1; stroke-dasharray: none; stroke-linecap: butt; stroke-dashoffset: 0; stroke-linejoin: miter; stroke-miterlimit: 4; fill: rgb(255,255,255); fill-opacity: 0; fill-rule: nonzero; opacity: 1;"  transform=" translate(0, 0)" d="M -0.02257 17.09695 L -10.03136 -0.5456600000000016 L -10.03136 -0.5456600000000016 C -12.3392 -4.613720000000002 -11.64701 -9.722010000000001 -8.33981 -13.02921 L -7.32045 -14.048570000000002 L -7.32045 -14.048570000000002 C -3.2800599999999998 -18.08896 3.2621700000000002 -18.11644 7.33637 -14.11015 L 8.14326 -13.31671 L 8.14326 -13.31671 C 11.66743 -9.851280000000001 12.40362 -4.441790000000001 9.93371 -0.16061000000000014 z" stroke-linecap="round" />
</g>
<g transform="matrix(2.1629604714 0 0 2.1629604714 247.8206894477 266.1022002087)" id="rBQSS-VpKKldjCclHz352"  >
<path style="stroke: rgb(0,0,0); stroke-width: 1; stroke-dasharray: none; stroke-linecap: butt; stroke-dashoffset: 0; stroke-linejoin: miter; stroke-miterlimit: 4; fill: rgb(255,255,255); fill-opacity: 0; fill-rule: nonzero; opacity: 1;"  transform=" translate(0, 0)" d="M -36.12329 -16.86986 L -2.6251199999999955 0.7625700000000002 L -2.6251199999999955 0.7625700000000002 C -0.6304099999999955 1.8125300000000002 1.7568900000000047 1.7969300000000001 3.7377100000000043 0.7210100000000002 L 36.123290000000004 -16.86986 L 36.123290000000004 12.37539 L 36.123290000000004 12.37539 C 36.123290000000004 14.857619999999999 34.11104 16.86987 31.628810000000005 16.86987 L -30.51354999999999 16.86987 L -30.51354999999999 16.86987 C -33.611729999999994 16.86987 -36.12329999999999 14.3583 -36.12329999999999 11.260119999999999 z" stroke-linecap="round" />
</g>
<g transform="matrix(2.1629604714 0 0 2.1629604714 198.2548349535 202.0083836713)" id="R6tAiBIMf3Pb6u7oqmBCl"  >
<path style="stroke: rgb(0,0,0); stroke-width: 1; stroke-dasharray: none; stroke-linecap: butt; stroke-dashoffset: 0; stroke-linejoin: miter; stroke-miterlimit: 4; fill: rgb(255,255,255); fill-opacity: 0; fill-rule: nonzero; opacity: 1;"  transform=" translate(0, 0)" d="M 0 0" stroke-linecap="round" />
</g>
<g transform="matrix(2.1629604714 0 0 2.1629604714 247.8206894477 196.2697849258)" id="8Tbt3GmhcTTgsE3NnsSex"  >
<path style="stroke: rgb(0,0,0); stroke-width: 1; stroke-dasharray: none; stroke-linecap: butt; stroke-dashoffset: 0; stroke-linejoin: miter; stroke-miterlimit: 4; fill: rgb(255,255,255); fill-opacity: 0; fill-rule: nonzero; opacity: 1;"  transform=" translate(0, 0)" d="M -36.37329 14.73468 L -3.1753499999999946 -13.484209999999997 C -1.2035799999999945 -15.160259999999997 1.6951600000000058 -15.150409999999997 3.655510000000006 -13.461019999999998 L 36.37330000000001 14.73468" stroke-linecap="round" />
</g>
<g transform="matrix(2.1629604714 0 0 2.1629604714 233.7241666176 252.7737905797)" id="LDo6s9ELdrX6pJcbufQbk"  >
<path style="stroke: rgb(0,0,0); stroke-width: 1; stroke-dasharray: none; stroke-linecap: butt; stroke-dashoffset: 0; stroke-linejoin: miter; stroke-miterlimit: 4; fill: rgb(255,255,255); fill-opacity: 0; fill-rule: nonzero; opacity: 1;"  transform=" translate(0, 0)" d="M 4.35621 6.66211 L 6.65318 -6.66212 L -6.65317 1.0579600000000005" stroke-linecap="round" />
</g>
<g transform="matrix(2.1629604714 0 0 2.1629604714 266.0664922297 252.2330504619)" id="Vcrlv1qfw1JuSe4qqeR8u"  >
<path style="stroke: rgb(0,0,0); stroke-width: 1; stroke-dasharray: none; stroke-linecap: butt; stroke-dashoffset: 0; stroke-linejoin: miter; stroke-miterlimit: 4; fill: rgb(255,255,255); fill-opacity: 0; fill-rule: nonzero; opacity: 1;"  transform=" translate(0, 0)" d="M -2.34188 6.41211 L -7.7996300000000005 -6.41212 L 7.799619999999999 0.24999000000000038" stroke-linecap="round" />
</g>
</svg>