<svg width="55" height="53" viewBox="0 0 55 53" fill="none" xmlns="http://www.w3.org/2000/svg">
<path d="M54.25 26.3298C54.25 40.4267 42.3047 51.9096 27.5 51.9096C12.6953 51.9096 0.75 40.4267 0.75 26.3298C0.75 12.2329 12.6953 0.75 27.5 0.75C42.3047 0.75 54.25 12.2329 54.25 26.3298Z" stroke="black" stroke-width="1.5"/>
<path d="M9.87109 44.1053C12.3129 41.1727 14.5686 38.761 16.703 36.8646C24.6648 29.791 30.9389 29.888 38.8861 36.8646C41.0543 38.7681 43.3471 41.1836 45.8326 44.1053" stroke="black" stroke-width="1.5" stroke-linecap="round"/>
<path d="M37.3277 17.7726C37.3277 22.7637 32.9774 26.8963 27.5008 26.8963C22.0241 26.8963 17.6738 22.7637 17.6738 17.7726C17.6738 12.7815 22.0241 8.64893 27.5008 8.64893C32.9774 8.64893 37.3277 12.7815 37.3277 17.7726Z" stroke="black" stroke-width="1.5"/>
</svg>
