<?xml version="1.0" encoding="UTF-8" standalone="no" ?>
<!DOCTYPE svg PUBLIC "-//W3C//DTD SVG 1.1//EN" "http://www.w3.org/Graphics/SVG/1.1/DTD/svg11.dtd">
<svg xmlns="http://www.w3.org/2000/svg" xmlns:xlink="http://www.w3.org/1999/xlink" version="1.1" width="500" height="500" viewBox="0 0 500 500" xml:space="preserve">
<desc>Created with Fabric.js 5.3.0</desc>
<defs>
</defs>
<g transform="matrix(2.0047392229 0 0 1.9921736012 247.311067043 410.9172066862)" id="mzMyxGW7W_cio4iN2VXqw"  >
<path style="stroke: rgb(0,0,0); stroke-width: 1; stroke-dasharray: none; stroke-linecap: butt; stroke-dashoffset: 0; stroke-linejoin: miter; stroke-miterlimit: 4; fill: rgb(0,0,0); fill-rule: nonzero; opacity: 1;"  transform=" translate(-6.4456891726, -4.6318603033)" d="M 4.83133 1.54802 C 6.043430000000001 0.07413999999999987 8.090430000000001 -0.40913 9.83373 0.36704000000000003 L 10.37106 0.60628 C 12.50085 1.5545200000000001 13.4679 4.04248 12.53759 6.18016 L 12.35334 6.60353 C 11.54863 8.45262 9.595749999999999 9.524000000000001 7.603879999999999 9.20916 L 2.4510299999999994 8.394720000000001 L 0.3363899999999993 7.6899000000000015 L 0.3930299999999993 7.255800000000002 L -6.661338147750939e-16 7.422780000000001 z" stroke-linecap="round" />
</g>
<g transform="matrix(2.0047392229 0 0 1.9921736012 245.4722289506 428.4130124504)" id="eRZW4el1rd6iPyzdKEUsw"  >
<path style="stroke: rgb(0,0,0); stroke-width: 1; stroke-dasharray: none; stroke-linecap: butt; stroke-dashoffset: 0; stroke-linejoin: miter; stroke-miterlimit: 4; fill: rgb(0,0,0); fill-rule: nonzero; opacity: 1;"  transform=" translate(-5.1770112371, -5.4535682218)" d="M 7.45292 2.04853 C 9.26329 2.65193 10.44803 4.38978 10.34816 6.295450000000001 L 10.31738 6.88283 C 10.19537 9.21098 8.21921 11.0054 5.89013 10.90296 L 5.42885 10.882670000000001 C 3.4141899999999996 10.794060000000002 1.71413 9.354840000000001 1.2942299999999998 7.382440000000001 L -2.220446049250313e-16 1.3031500000000005 L 0.17001999999999978 4.440892098500626e-16 L 2.3320299999999996 0.34172000000000047 z" stroke-linecap="round" />
</g>
<g transform="matrix(2.0047392229 0 0 1.9921736012 237.6016599524 417.5272647445)" id="m6dTFq9Pv9CXFz2_OQSa7"  >
<path style="stroke: rgb(0,0,0); stroke-width: 1; stroke-dasharray: none; stroke-linecap: butt; stroke-dashoffset: 0; stroke-linejoin: miter; stroke-miterlimit: 4; fill: rgb(0,0,0); fill-rule: nonzero; opacity: 1;"  transform=" translate(-1.081015, -0.3524)" d="M 0.01853 0.2211 L 0.04442 0.21627 L 0.02246 0.19102 L 0.047380000000000005 -0.000010000000000010001 L 2.16202 0.7048099999999999 L 0.000010000000000065512 0.3630899999999999 z" stroke-linecap="round" />
</g>
<g transform="matrix(2.0047392229 0 0 1.9921736012 234.7914019656 416.3442972799)" id="iIxtAEfbhDPJv-Xo_smHw"  >
<path style="stroke: rgb(0,0,0); stroke-width: 1; stroke-dasharray: none; stroke-linecap: butt; stroke-dashoffset: 0; stroke-linejoin: miter; stroke-miterlimit: 4; fill: rgb(0,0,0); fill-rule: nonzero; opacity: 1;"  transform=" translate(-0.03178, -0.02572)" d="M 0 0.027 L 0.06356 0 L 0.021260000000000008 0.05144 z" stroke-linecap="round" />
</g>
<g transform="matrix(2.0047392229 0 0 1.9921736012 235.2066719599 416.3928053541)" id="6ShWosrMmdCRIcHez22jy"  >
<path style="stroke: rgb(0,0,0); stroke-width: 1; stroke-dasharray: none; stroke-linecap: butt; stroke-dashoffset: 0; stroke-linejoin: miter; stroke-miterlimit: 4; fill: rgb(0,0,0); fill-rule: nonzero; opacity: 1;"  transform=" translate(-0.21766, -0.21705)" d="M 0.43533 0 L 0.37868999999999997 0.4341 L 0.10957999999999996 0.3444 L -0.000010000000000051634 0.21841999999999998 L 0.042289999999999946 0.16697999999999996 z" stroke-linecap="round" />
</g>
<g transform="matrix(2.0047392229 0 0 1.9921736012 235.2597482716 416.9261403381)" id="mW8_SNvwLUbWaYJQu1n-z"  >
<path style="stroke: rgb(0,0,0); stroke-width: 1; stroke-dasharray: none; stroke-linecap: butt; stroke-dashoffset: 0; stroke-linejoin: miter; stroke-miterlimit: 4; fill: rgb(0,0,0); fill-rule: nonzero; opacity: 1;"  transform=" translate(-0.134555, -0.14036)" d="M 0.24419 0.28072 L 0 0 L 0.26911 0.0897 z" stroke-linecap="round" />
</g>
<g transform="matrix(2.0047392229 0 0 1.9921736012 225.166827922 428.6373524794)" id="2CTA21tWWfZoDrtpDi3cF"  >
<path style="stroke: rgb(0,0,0); stroke-width: 1; stroke-dasharray: none; stroke-linecap: butt; stroke-dashoffset: 0; stroke-linejoin: miter; stroke-miterlimit: 4; fill: rgb(0,0,0); fill-rule: nonzero; opacity: 1;"  transform=" translate(-4.9516901291, -5.6191512996)" d="M 9.10671 7.46219 C 8.859829999999999 9.354429999999999 7.37997 10.84901 5.490259999999999 11.11459 L 4.907799999999999 11.19645 C 2.599139999999999 11.52091 0.4606199999999987 9.92346 0.11676999999999893 7.6176200000000005 L 0.048669999999998936 7.160950000000001 C -0.2487600000000011 5.1664 0.8396199999999989 3.2229600000000005 2.695669999999999 2.4344200000000003 L 7.494979999999999 0.3954200000000001 L 9.614669999999998 0.000010000000000121023 L 9.903379999999999 1.35613 z" stroke-linecap="round" />
</g>
<g transform="matrix(2.0047392229 0 0 1.9921736012 234.9747074832 418.7833162359)" id="t64UZM_axz2C9EtXMahiH"  >
<path style="stroke: rgb(0,0,0); stroke-width: 1; stroke-dasharray: none; stroke-linecap: butt; stroke-dashoffset: 0; stroke-linejoin: miter; stroke-miterlimit: 4; fill: rgb(0,0,0); fill-rule: nonzero; opacity: 1;"  transform=" translate(-0.229365, -0.68334)" d="M 0.28871 1.36669 L 0 0.010569999999999968 L 0.0567 -0.000010000000000032552 L 0.45872999999999997 0.06352999999999996 z" stroke-linecap="round" />
</g>
<g transform="matrix(2.0047392229 0 0 1.9921736012 235.0501076802 417.4071211817)" id="pAVbSHoNrL_QK4CbkUMEt"  >
<path style="stroke: rgb(0,0,0); stroke-width: 1; stroke-dasharray: none; stroke-linecap: butt; stroke-dashoffset: 0; stroke-linejoin: miter; stroke-miterlimit: 4; fill: rgb(0,0,0); fill-rule: nonzero; opacity: 1;"  transform=" translate(-0.21028, -0.071)" d="M 0.42056 0 L 0.40203 0.142 L 0 0.07845999999999999 z" stroke-linecap="round" />
</g>
<g transform="matrix(2.0047392229 0 0 1.9921736012 235.4976108144 417.2357227158)" id="GOd3S_Z8DTAe1MZqUgwfE"  >
<path style="stroke: rgb(0,0,0); stroke-width: 1; stroke-dasharray: none; stroke-linecap: butt; stroke-dashoffset: 0; stroke-linejoin: miter; stroke-miterlimit: 4; fill: rgb(0,0,0); fill-rule: nonzero; opacity: 1;"  transform=" translate(-0.012945, -0.01504)" d="M 0.02589 0.02525 L 0 0.030080000000000003 L 0.00392 3.469446951953614e-18 z" stroke-linecap="round" />
</g>
<g transform="matrix(2.0047392229 0 0 1.9921736012 221.6785045251 411.2148664057)" id="3lto0hGqyMvocwRP8QkMc"  >
<path style="stroke: rgb(0,0,0); stroke-width: 1; stroke-dasharray: none; stroke-linecap: butt; stroke-dashoffset: 0; stroke-linejoin: miter; stroke-miterlimit: 4; fill: rgb(0,0,0); fill-rule: nonzero; opacity: 1;"  transform=" translate(0, 0)" d="M -1.22947 4.55009 C -3.10539 4.90002 -4.98412 3.95445 -5.82065 2.23929 L -6.0784899999999995 1.71063 C -7.100479999999999 -0.38477000000000006 -6.24205 -2.91226 -4.155329999999999 -3.95183 L -3.7420499999999994 -4.15772 C -1.9370299999999994 -5.05694 0.2476200000000004 -4.62239 1.571120000000001 -3.1008500000000003 L 6.109470000000002 2.1165499999999993 L 6.3583500000000015 2.5736599999999994 L 6.4190900000000015 2.4724999999999993 L 6.5091800000000015 2.576069999999999 L 6.368300000000001 2.635919999999999 L 6.293310000000002 2.6109199999999992 L 6.304410000000002 2.6630599999999993 L 4.283340000000002 3.5217199999999993 z" stroke-linecap="round" />
</g>
<g transform="matrix(2.0047392229 0 0 1.9921736012 234.3700975187 416.468233862)" id="HfDYGigB7fl77FFQy7Lyx"  >
<path style="stroke: rgb(0,0,0); stroke-width: 1; stroke-dasharray: none; stroke-linecap: butt; stroke-dashoffset: 0; stroke-linejoin: miter; stroke-miterlimit: 4; fill: rgb(0,0,0); fill-rule: nonzero; opacity: 1;"  transform=" translate(-0.037495, -0.02607)" d="M 0 0 L 0.07499 0.025 L 0.011099999999999999 0.052140000000000006 z" stroke-linecap="round" />
</g>
<g transform="matrix(2.0047392229 0 0 1.9921736012 232.3901781752 417.3754668003)" id="yrSXM6RaHnVzAW-Kzw2J6"  >
<path style="stroke: rgb(0,0,0); stroke-width: 1; stroke-dasharray: none; stroke-linecap: butt; stroke-dashoffset: 0; stroke-linejoin: miter; stroke-miterlimit: 4; fill: rgb(0,0,0); fill-rule: nonzero; opacity: 1;"  transform=" translate(-1.059845, -0.42933)" d="M 0 0.85866 L 2.02107 0 L 2.0569699999999997 0.16863 L 1.8639799999999997 0.4033 L 2.1153899999999997 0.44304 L 2.11969 0.46326 z" stroke-linecap="round" />
</g>
<g transform="matrix(2.0047392229 0 0 1.9921736012 234.2542613792 417.1294334584)" id="BsY40bGKHbWn4J205mXGh"  >
<path style="stroke: rgb(0,0,0); stroke-width: 1; stroke-dasharray: none; stroke-linecap: butt; stroke-dashoffset: 0; stroke-linejoin: miter; stroke-miterlimit: 4; fill: rgb(0,0,0); fill-rule: nonzero; opacity: 1;"  transform=" translate(-0.125705, -0.1372)" d="M 0 0.23467 L 0.19299 0 L 0.25141 0.2744 z" stroke-linecap="round" />
</g>
<g transform="matrix(2.0047392229 0 0 1.9921736012 234.6077863754 416.4411318437)" id="JP-hrXrvmJ_ehebi1DY3w"  >
<path style="stroke: rgb(0,0,0); stroke-width: 1; stroke-dasharray: none; stroke-linecap: butt; stroke-dashoffset: 0; stroke-linejoin: miter; stroke-miterlimit: 4; fill: rgb(0,0,0); fill-rule: nonzero; opacity: 1;"  transform=" translate(-0.081065, -0.04732)" d="M 0.14088 0 L 0.16213 0.02443 L 0.10439 0.09464 L 0 0.05985 z" stroke-linecap="round" />
</g>
<g transform="matrix(2.0047392229 0 0 1.9921736012 234.8222743471 416.5210248164)" id="8oB3hPiy-d_yd0XItgkFz"  >
<path style="stroke: rgb(0,0,0); stroke-width: 1; stroke-dasharray: none; stroke-linecap: butt; stroke-dashoffset: 0; stroke-linejoin: miter; stroke-miterlimit: 4; fill: rgb(0,0,0); fill-rule: nonzero; opacity: 1;"  transform=" translate(-0.083665, -0.06299)" d="M 0.16733 0.12598 L 0 0.07021000000000001 L 0.05774 1.3877787807814457e-17 z" stroke-linecap="round" />
</g>
<g transform="matrix(2.0047392229 0 0 1.9921736012 234.5674073217 417.4229017774)" id="rMBorWBdZmLpb6etkE_q6"  >
<path style="stroke: rgb(0,0,0); stroke-width: 1; stroke-dasharray: none; stroke-linecap: butt; stroke-dashoffset: 0; stroke-linejoin: miter; stroke-miterlimit: 4; fill: rgb(0,0,0); fill-rule: nonzero; opacity: 1;"  transform=" translate(-0.0305, -0.01011)" d="M 0.0043 0.02022 L 0 0 L 0.061 0.00964 z" stroke-linecap="round" />
</g>
<g transform="matrix(2.0047392229 0 0 1.9921736012 234.4858642125 416.6610981172)" id="Lw0jDTXqzfAUxrH9lgb9u"  >
<path style="stroke: rgb(0,0,0); stroke-width: 1; stroke-dasharray: none; stroke-linecap: butt; stroke-dashoffset: 0; stroke-linejoin: miter; stroke-miterlimit: 4; fill: rgb(0,0,0); fill-rule: nonzero; opacity: 1;"  transform=" translate(-0.08414, -0.097885)" d="M 0 0.02714 L 0.06389 0 L 0.16827999999999999 0.03479 L 0.03588999999999998 0.19577 z" stroke-linecap="round" />
</g>
<g transform="matrix(2.0047392229 0 0 1.9921736012 234.9343399952 416.9786901573)" id="OODWfSRmTkmTFjnVw9bhK"  >
<path style="stroke: rgb(0,0,0); stroke-width: 1; stroke-dasharray: none; stroke-linecap: butt; stroke-dashoffset: 0; stroke-linejoin: miter; stroke-miterlimit: 4; fill: rgb(0,0,0); fill-rule: nonzero; opacity: 1;"  transform=" translate(-0.271955, -0.22251)" d="M 0.53998 0.36657 L 0.11942000000000003 0.44502 L 0.05842000000000003 0.43538000000000004 L 2.7755575615628914e-17 0.16098000000000007 L 0.13239000000000004 5.551115123125783e-17 L 0.29972000000000004 0.055770000000000056 L 0.54391 0.33649000000000007 z" stroke-linecap="round" />
</g>
<g transform="matrix(2.0047392229 0 0 1.9921736012 234.7681713857 402.3464388314)" id="InsLfNZvtTxG2UTJ17dlR"  >
<path style="stroke: rgb(0,0,0); stroke-width: 1; stroke-dasharray: none; stroke-linecap: butt; stroke-dashoffset: 0; stroke-linejoin: miter; stroke-miterlimit: 4; fill: rgb(0,0,0); fill-rule: nonzero; opacity: 1;"  transform=" translate(0, 0)" d="M -4.12843 -0.24317 C -5.0409299999999995 -1.91914 -4.722189999999999 -3.99811 -3.34948 -5.32372 L -2.92637 -5.73231 C -1.24934 -7.3518 1.4197200000000003 -7.31642 3.05324 -5.65307 L 3.37676 -5.323639999999999 C 4.78975 -3.884839999999999 5.05156 -1.6728199999999993 4.0134799999999995 0.05607000000000095 L -0.11028000000000038 6.924140000000001 L -0.4199000000000004 6.568200000000001 z" stroke-linecap="round" />
</g>
<g transform="matrix(2.0047392229 0 0 1.9921736012 234.2367279244 415.8867310269)" id="WY9Lw1yK4Dv83EuDdwyCo"  >
<path style="stroke: rgb(0,0,0); stroke-width: 1; stroke-dasharray: none; stroke-linecap: butt; stroke-dashoffset: 0; stroke-linejoin: miter; stroke-miterlimit: 4; fill: rgb(0,0,0); fill-rule: nonzero; opacity: 1;"  transform=" translate(-0.15481, -0.228555)" d="M 0.24888 0.45711 L 0 0 L 0.30962 0.35594 z" stroke-linecap="round" />
</g>
<g transform="matrix(4.882588407 0 0 4.8519845468 244.6746624308 227.6421746466)" id="vtVOjJbT1h_g-oDdHhm_0"  >
<path style="stroke: rgb(0,0,0); stroke-width: 2; stroke-dasharray: none; stroke-linecap: butt; stroke-dashoffset: 0; stroke-linejoin: miter; stroke-miterlimit: 4; fill: rgb(255,255,255); fill-opacity: 0; fill-rule: nonzero; opacity: 1;"  transform=" translate(0, 0)" d="M -20.07526 -15.12003 C -12.837900000000001 -38.30274 20.41643 -31.57386 20.07262 -9.42258 C 19.72881 12.7287 -2.3935299999999984 7.522410000000001 -2.3935299999999984 22.797459999999997 C -2.3935299999999984 38.072509999999994 -2.3935299999999984 22.797459999999997 -2.3935299999999984 22.797459999999997" stroke-linecap="round" />
</g>
<g transform="matrix(4.1120386416 0 0 4.0862645551 250 250)" id="6j4p_A6s9Lmmx12fuQou9"  >
<path style="stroke: rgb(0,0,0); stroke-width: 3; stroke-dasharray: none; stroke-linecap: butt; stroke-dashoffset: 0; stroke-linejoin: miter; stroke-miterlimit: 4; fill: none; fill-rule: nonzero; opacity: 1;"  transform=" translate(0, 0)" d="M 0 -55.24079 C 30.49292 -55.24079 55.24079 -30.492919999999998 55.24079 0 C 55.24079 30.49292 30.492919999999998 55.24079 0 55.24079 C -30.49292 55.24079 -55.24079 30.492919999999998 -55.24079 0 C -55.24079 -30.49292 -30.492919999999998 -55.24079 0 -55.24079 z" stroke-linecap="round" />
</g>
</svg>